<svg width="40" height="42" viewBox="0 0 40 42" fill="none" xmlns="http://www.w3.org/2000/svg">
<path d="M28.3966 7.72973L33.5858 -2.80383e-07L40.0002 22L33.004 22L28.3966 7.72973Z" fill="#3A53D7"/>
<path d="M28.3334 36.2973L32.1442 42L40.0001 22L33.0042 22L28.3334 36.2973Z" fill="#8697EA"/>
<path d="M18.8175 22L33.586 0L17.7262 2.81271e-06L0.000445358 22L18.8175 22Z" fill="#8697EA"/>
<path d="M18.8102 22L32.1442 42L16.2842 42L9.62417e-05 22L18.8102 22Z" fill="#3A53D7"/>
<path d="M18.8472 21.9992L28.4025 7.72995C28.4025 7.72995 33.64 14.7184 33.64 21.9921C33.64 29.2657 28.3643 36.3065 28.3643 36.3065L18.8472 21.9992Z" fill="white"/>
</svg>
